# Blender 5.0.1
# www.blender.org
mtllib dirt.mtl
o Dirt_Cube.005
v 1.000000 1.000000 1.000000
v 1.000000 0.000000 1.000000
v 0.000000 1.000000 1.000000
v 0.000000 0.000000 1.000000
v 1.000000 1.000000 -0.000000
v 1.000000 0.000000 0.000000
v 0.000000 1.000000 -0.000000
v 0.000000 0.000000 0.000000
vn -0.0000 1.0000 -0.0000
vn -1.0000 -0.0000 -0.0000
vn -0.0000 -0.0000 -1.0000
vn -0.0000 -1.0000 -0.0000
vn -0.0000 -0.0000 1.0000
vn 1.0000 -0.0000 -0.0000
vt 0.003095 0.500000
vt 0.334661 0.500000
vt 0.334661 1.000000
vt 0.003095 1.000000
vt 0.666228 0.000000
vt 0.666228 0.500000
vt 0.334661 0.500000
vt 0.334662 -0.000000
vt 0.998677 0.001326
vt 0.998677 0.498675
vt 0.665344 0.498674
vt 0.665344 0.001325
vt 0.003095 0.500000
vt 0.003095 0.000000
vt 0.334661 0.000000
vt 0.667111 0.501326
vt 0.667111 0.998675
vt 0.333778 0.998674
vt 0.333778 0.501325
vt 0.997794 0.500000
vt 0.997793 1.000000
vt 0.666227 1.000000
vt 0.666227 0.500000
s 1
usemtl Material.001
f 1/1/1 5/2/1 7/3/1 3/4/1
f 4/5/2 3/6/2 7/7/2 8/8/2
f 8/9/3 7/10/3 5/11/3 6/12/3
f 6/2/4 2/13/4 4/14/4 8/15/4
f 2/16/5 1/17/5 3/18/5 4/19/5
f 6/20/6 5/21/6 1/22/6 2/23/6
